<?xml version='1.0' encoding='UTF-8' standalone='no'?>
<!-- Created with Fritzing (http://www.fritzing.org/) -->
<svg xmlns:svg='http://www.w3.org/2000/svg' xmlns='http://www.w3.org/2000/svg' version='1.2' baseProfile='tiny' x='0in' y='0in' width='0.841222in' height='1in' viewBox='0 0 60.568 72' >
<g partID='119560'><g  id="breadboard">
 <g  id="icon">
  <path  fill="#1F7A34" stroke="none" stroke-width="0" d="M0,0L0,33.84A2.16,2.16,0,0,1,0,38.16L0,72L60.568,72L60.568,0L0,0z"/>
  <g transform="matrix(1, 0, 0, 1, 7.2, 7.58405)">
   <g >
    <g >
     <rect  width="43.775" x="1.196" y="6.5" fill="#1A1A1A" height="32.671"/>
     <g >
      <g  enable-background="new    ">
       <g >
        <polyline  fill="#B3B3B3" points="2.353,56.153,2.353,53.26,12.046,53.26,12.046,56.153,2.353,56.153"/>
        <polyline  fill="#B3B3B3" points="2.353,53.26,2.353,39.287,43.816,39.287,43.816,44.912,43.816,45.253,43.825,45.253,43.825,47.445,43.816,47.445,43.816,47.792,43.816,53.26,34.124,53.26,43.816,53.26,43.816,56.153,34.124,56.153,28.461,56.153,28.461,56.503,17.707,56.503,17.707,56.153,12.046,56.153,12.046,53.26,2.353,53.26"/>
        <polyline  fill="#B3B3B3" points="44.967,38.751,1.192,38.751,1.192,56.837,44.967,56.837,44.967,56.832,1.192,56.832,1.192,56.607,44.967,56.607,44.527,56.607,44.527,50.803,44.967,50.803,44.967,38.751"/>
        <polyline  fill="#333333" points="42.879,47.445,42.879,52.904,33.429,52.904,33.429,53.619,33.403,53.619,33.403,54.24,28.461,54.24,28.461,55.901,28.461,56.153,34.124,56.153,34.124,53.26,43.816,53.26,43.816,47.792,42.879,47.792,42.879,47.445"/>
        <polyline  fill="#333333" points="43.816,39.287,2.353,39.287,2.353,53.26,12.046,53.26,12.046,56.153,17.707,56.153,17.707,54.24,12.766,54.24,12.766,53.619,12.739,53.619,12.739,52.904,3.298,52.904,3.298,47.792,2.353,47.792,2.353,44.912,3.298,44.912,3.298,39.794,9.49903,39.794,10.75,39.794,11.136,39.794,11.38,39.794,11.569,39.794,11.947,39.794,12.145,39.794,12.387,39.794,12.739,39.794,13.99,39.794,14.377,39.794,14.62,39.794,14.809,39.794,15.187,39.794,15.385,39.794,15.628,39.794,15.979,39.794,17.23,39.794,17.617,39.794,17.86,39.794,18.058,39.794,18.427,39.794,18.616,39.794,18.868,39.794,19.219,39.794,20.469,39.794,20.857,39.794,21.1,39.794,21.298,39.794,21.667,39.794,21.856,39.794,22.108,39.794,22.459,39.794,23.709,39.794,24.096,39.794,24.348,39.794,24.538,39.794,24.907,39.794,25.104,39.794,25.347,39.794,25.7,39.794,26.95,39.794,27.336,39.794,27.588,39.794,27.778,39.794,28.146,39.794,28.344,39.794,28.588,39.794,28.938,39.794,30.19,39.794,30.577,39.794,30.82,39.794,31.017,39.794,31.395,39.794,31.584,39.794,31.829,39.794,32.178,39.794,33.429,39.794,33.817,39.794,34.059,39.794,34.258,39.794,34.635,39.794,34.825,39.794,35.068,39.794,35.418,39.794,36.67,39.794,42.879,39.794,42.879,45.253,42.879,44.912,43.816,44.912,43.816,39.287"/>
        <polyline  points="12.766,54.236,12.766,53.619,33.393,53.619,33.393,54.236,12.766,54.236"/>
        <polyline  points="9.49903,52.904,9.49903,48.984,10.75,48.984,10.75,52.904,9.49903,52.904"/>
        <polyline  points="15.979,53.619,15.979,48.984,17.23,48.984,17.23,53.619,15.979,53.619"/>
        <polyline  points="19.219,53.619,19.219,48.984,20.469,48.984,20.469,53.619,19.219,53.619"/>
        <polyline  points="22.459,53.619,22.459,48.984,23.709,48.984,23.709,53.619,22.459,53.619"/>
        <polyline  points="25.7,53.619,25.7,48.984,26.95,48.984,26.95,53.619,25.7,53.619"/>
        <polyline  points="28.938,53.619,28.938,48.984,30.19,48.984,30.19,53.619,28.938,53.619"/>
        <polyline  points="35.418,52.904,35.418,48.984,36.67,48.984,36.67,52.904,35.418,52.904"/>
        <polyline  points="42.879,39.794,36.67,39.794,36.67,48.646,35.418,48.646,35.418,39.794,35.068,39.794,35.068,47.257,33.817,47.257,33.817,39.794,33.429,39.794,33.429,48.646,32.178,48.646,32.178,39.794,31.829,39.794,31.829,47.257,30.577,47.257,30.577,39.794,30.19,39.794,30.19,48.646,28.938,48.646,28.938,39.794,28.588,39.794,28.588,47.257,27.336,47.257,27.336,39.794,26.95,39.794,26.95,48.646,25.7,48.646,25.7,39.794,25.347,39.794,25.347,47.257,24.096,47.257,24.096,39.794,23.709,39.794,23.709,48.646,22.459,48.646,22.459,39.794,22.108,39.794,22.108,47.257,20.857,47.257,20.857,39.794,20.469,39.794,20.469,48.646,19.219,48.646,19.219,39.794,18.868,39.794,18.868,47.257,17.617,47.257,17.617,39.794,17.23,39.794,17.23,48.646,15.979,48.646,15.979,39.794,15.628,39.794,15.628,47.257,14.377,47.257,14.377,39.794,13.99,39.794,13.99,48.646,12.739,48.646,12.739,39.794,12.387,39.794,12.387,47.257,11.136,47.257,11.136,39.794,10.75,39.794,10.75,48.646,9.49903,48.646,9.49903,39.794,3.298,39.794,3.298,44.912,3.298,45.253,3.478,45.253,3.72,45.253,3.847,45.253,3.991,45.253,4.234,45.253,4.234,47.445,3.298,47.445,3.298,47.792,3.298,52.904,12.739,52.904,12.739,48.984,13.99,48.984,13.99,53.619,12.766,53.619,12.766,54.24,17.707,54.24,17.707,56.153,17.707,55.901,28.461,55.901,28.461,54.24,33.403,54.24,33.403,53.619,32.178,53.619,32.178,48.984,33.429,48.984,33.429,52.904,42.879,52.904,42.879,47.445,41.934,47.445,41.934,45.253,42.176,45.253,42.322,45.253,42.458,45.253,42.691,45.253,42.879,45.253,42.879,39.794"/>
        <polyline  fill="#1A1A1A" points="33.393,53.619,12.766,53.619,12.766,54.236,33.393,54.236,33.393,53.619"/>
        <polyline  fill="#1A1A1A" points="28.461,55.901,17.707,55.901,17.707,56.153,17.707,56.503,28.461,56.503,28.461,56.153,28.461,55.901"/>
        <polyline  points="43.816,47.445,42.879,47.445,42.879,47.792,43.816,47.792,43.816,47.445"/>
        <polyline  points="43.816,44.912,42.879,44.912,42.879,45.253,42.943,45.253,43.816,45.253,43.816,44.912"/>
        <polyline  points="3.298,44.912,2.353,44.912,2.353,47.792,3.298,47.792,3.298,47.445,2.353,47.445,2.353,45.253,3.226,45.253,3.298,45.253,3.298,44.912"/>
        <polyline  fill="#CCCCCC" points="43.825,45.253,43.816,45.253,42.943,45.253,42.943,47.445,41.934,47.445,41.934,45.253,41.934,47.445,42.879,47.445,43.816,47.445,43.825,47.445,43.825,45.253"/>
        <polyline  fill="#B3B3B3" points="42.943,45.253,42.879,45.253,42.691,45.253,42.691,47.445,41.934,47.445,41.934,45.253,41.934,47.445,42.943,47.445,42.943,45.253"/>
        <polyline  fill="#999999" points="42.691,45.253,42.458,45.253,42.458,47.445,41.934,47.445,41.934,45.253,41.934,47.445,42.691,47.445,42.691,45.253"/>
        <polyline  fill="#808080" points="42.458,45.253,42.322,45.253,42.322,47.445,42.176,47.445,42.176,45.253,41.934,45.253,41.934,47.445,42.458,47.445,42.458,45.253"/>
        <polyline  fill="#CCCCCC" points="42.322,45.253,42.176,45.253,42.176,47.445,42.322,47.445,42.322,45.253"/>
        <polyline  fill="#CCCCCC" points="3.226,45.253,2.353,45.253,2.353,47.445,3.298,47.445,4.234,47.445,3.226,47.445,3.226,45.253"/>
        <polyline  fill="#B3B3B3" points="3.478,45.253,3.298,45.253,3.226,45.253,3.226,47.445,4.234,47.445,3.478,47.445,3.478,45.253"/>
        <polyline  fill="#999999" points="3.72,45.253,3.478,45.253,3.478,47.445,4.234,47.445,3.72,47.445,3.72,45.253"/>
        <polyline  fill="#808080" points="4.234,45.253,3.991,45.253,3.991,47.445,3.847,47.445,3.847,45.253,3.72,45.253,3.72,47.445,4.234,47.445,4.234,45.253"/>
        <polyline  fill="#CCCCCC" points="3.991,45.253,3.847,45.253,3.847,47.445,3.991,47.445,3.991,45.253"/>
        <polyline  fill="#0F0F0F" points="36.67,48.984,35.418,48.984,35.418,52.904,36.67,52.904,36.67,48.984"/>
        <polyline  fill="#252525" points="33.429,52.904,33.403,52.904,33.403,53.619,33.429,53.619,33.429,52.904"/>
        <polyline  fill="#0F0F0F" points="33.429,48.984,32.178,48.984,32.178,53.619,33.403,53.619,33.403,52.904,33.429,52.904,33.429,48.984"/>
        <polyline  fill="#0F0F0F" points="30.19,48.984,28.938,48.984,28.938,53.619,30.19,53.619,30.19,48.984"/>
        <polyline  fill="#0F0F0F" points="26.95,48.984,25.7,48.984,25.7,53.619,26.95,53.619,26.95,48.984"/>
        <polyline  fill="#0F0F0F" points="23.709,48.984,22.459,48.984,22.459,53.619,23.709,53.619,23.709,48.984"/>
        <polyline  fill="#0F0F0F" points="20.469,48.984,19.219,48.984,19.219,53.619,20.469,53.619,20.469,48.984"/>
        <polyline  fill="#0F0F0F" points="17.23,48.984,15.979,48.984,15.979,53.619,17.23,53.619,17.23,48.984"/>
        <polyline  fill="#252525" points="12.766,52.904,12.739,52.904,12.739,53.619,12.766,53.619,12.766,52.904"/>
        <polyline  fill="#0F0F0F" points="13.99,48.984,12.739,48.984,12.739,52.904,12.766,52.904,12.766,53.619,13.99,53.619,13.99,48.984"/>
        <polyline  fill="#0F0F0F" points="10.75,48.984,9.49903,48.984,9.49903,52.904,10.75,52.904,10.75,48.984"/>
        <polyline  fill="#0D0D0D" points="36.67,39.794,35.418,39.794,35.418,48.646,36.67,48.646,36.67,39.794"/>
        <polyline  fill="#0D0D0D" points="33.429,39.794,32.178,39.794,32.178,48.646,33.429,48.646,33.429,39.794"/>
        <polyline  fill="#0D0D0D" points="30.19,39.794,28.938,39.794,28.938,48.646,30.19,48.646,30.19,39.794"/>
        <polyline  fill="#0D0D0D" points="26.95,39.794,25.7,39.794,25.7,48.646,26.95,48.646,26.95,39.794"/>
        <polyline  fill="#0D0D0D" points="23.709,39.794,22.459,39.794,22.459,48.646,23.709,48.646,23.709,39.794"/>
        <polyline  fill="#0D0D0D" points="20.469,39.794,19.219,39.794,19.219,48.646,20.469,48.646,20.469,39.794"/>
        <polyline  fill="#0D0D0D" points="17.23,39.794,15.979,39.794,15.979,48.646,17.23,48.646,17.23,39.794"/>
        <polyline  fill="#0D0D0D" points="13.99,39.794,12.739,39.794,12.739,48.646,13.99,48.646,13.99,39.794"/>
        <polyline  fill="#0D0D0D" points="10.75,39.794,9.49903,39.794,9.49903,48.646,10.75,48.646,10.75,39.794"/>
        <polyline  fill="#6F4813" points="35.068,39.794,34.825,39.794,34.825,47.257,34.059,47.257,34.059,39.794,33.817,39.794,33.817,47.257,35.068,47.257,35.068,39.794"/>
        <polyline  fill="#6F4813" points="31.829,39.794,31.584,39.794,31.584,47.257,30.82,47.257,30.82,39.794,30.577,39.794,30.577,47.257,31.829,47.257,31.829,39.794"/>
        <polyline  fill="#6F4813" points="28.588,39.794,28.344,39.794,28.344,47.257,27.588,47.257,27.588,39.794,27.336,39.794,27.336,47.257,28.588,47.257,28.588,39.794"/>
        <polyline  fill="#6F4813" points="25.347,39.794,25.104,39.794,25.104,47.257,24.348,47.257,24.348,39.794,24.096,39.794,24.096,47.257,25.347,47.257,25.347,39.794"/>
        <polyline  fill="#6F4813" points="22.108,39.794,21.856,39.794,21.856,47.257,21.1,47.257,21.1,39.794,20.857,39.794,20.857,47.257,22.108,47.257,22.108,39.794"/>
        <polyline  fill="#6F4813" points="18.868,39.794,18.616,39.794,18.616,47.257,17.86,47.257,17.86,39.794,17.617,39.794,17.617,47.257,18.868,47.257,18.868,39.794"/>
        <polyline  fill="#6F4813" points="15.628,39.794,15.385,39.794,15.385,47.257,14.62,47.257,14.62,39.794,14.377,39.794,14.377,47.257,15.628,47.257,15.628,39.794"/>
        <polyline  fill="#6F4813" points="12.387,39.794,12.145,39.794,12.145,47.257,11.38,47.257,11.38,39.794,11.136,39.794,11.136,47.257,12.387,47.257,12.387,39.794"/>
        <polyline  fill="#78592E" points="34.825,39.794,34.635,39.794,34.635,47.257,34.258,47.257,34.258,39.794,34.059,39.794,34.059,47.257,34.825,47.257,34.825,39.794"/>
        <polyline  fill="#78592E" points="31.584,39.794,31.395,39.794,31.395,47.257,31.017,47.257,31.017,39.794,30.82,39.794,30.82,47.257,31.584,47.257,31.584,39.794"/>
        <polyline  fill="#78592E" points="28.344,39.794,28.146,39.794,28.146,47.257,27.778,47.257,27.778,39.794,27.588,39.794,27.588,47.257,28.344,47.257,28.344,39.794"/>
        <polyline  fill="#78592E" points="25.104,39.794,24.907,39.794,24.907,47.257,24.538,47.257,24.538,39.794,24.348,39.794,24.348,47.257,25.104,47.257,25.104,39.794"/>
        <polyline  fill="#78592E" points="21.856,39.794,21.667,39.794,21.667,47.257,21.298,47.257,21.298,39.794,21.1,39.794,21.1,47.257,21.856,47.257,21.856,39.794"/>
        <polyline  fill="#78592E" points="18.616,39.794,18.427,39.794,18.427,47.257,18.058,47.257,18.058,39.794,17.86,39.794,17.86,47.257,18.616,47.257,18.616,39.794"/>
        <polyline  fill="#78592E" points="15.385,39.794,15.187,39.794,15.187,47.257,14.809,47.257,14.809,39.794,14.62,39.794,14.62,47.257,15.385,47.257,15.385,39.794"/>
        <polyline  fill="#78592E" points="12.145,39.794,11.947,39.794,11.947,47.257,11.569,47.257,11.569,39.794,11.38,39.794,11.38,47.257,12.145,47.257,12.145,39.794"/>
        <polyline  fill="#81694A" points="34.635,39.794,34.258,39.794,34.258,47.257,34.635,47.257,34.635,39.794"/>
        <polyline  fill="#81694A" points="31.395,39.794,31.017,39.794,31.017,47.257,31.395,47.257,31.395,39.794"/>
        <polyline  fill="#81694A" points="28.146,39.794,27.778,39.794,27.778,47.257,28.146,47.257,28.146,39.794"/>
        <polyline  fill="#81694A" points="24.907,39.794,24.538,39.794,24.538,47.257,24.907,47.257,24.907,39.794"/>
        <polyline  fill="#81694A" points="21.667,39.794,21.298,39.794,21.298,47.257,21.667,47.257,21.667,39.794"/>
        <polyline  fill="#81694A" points="18.427,39.794,18.058,39.794,18.058,47.257,18.427,47.257,18.427,39.794"/>
        <polyline  fill="#81694A" points="15.187,39.794,14.809,39.794,14.809,47.257,15.187,47.257,15.187,39.794"/>
        <polyline  fill="#81694A" points="11.947,39.794,11.569,39.794,11.569,47.257,11.947,47.257,11.947,39.794"/>
        <polyline  fill="#999999" points="44.967,56.607,1.192,56.607,1.192,56.832,44.967,56.832,44.967,56.607"/>
        <polyline  fill="#999999" points="44.967,50.803,44.527,50.803,44.527,56.607,44.967,56.607,44.967,50.803"/>
       </g>
      </g>
     </g>
     <g >
      <path  fill="#B3B3B3" d="M12.031,29.421c0,-0.396,0.324,-0.719,0.724003,-0.719l2.649,0c0.396,0,0.724003,0.324,0.724003,0.719l0,9.44899c0,0.396,-0.324,0.719,-0.724003,0.719l-2.649,0c-0.396,0,-0.724003,-0.323,-0.724003,-0.719L12.031,29.421z"/>
      <path  fill="#B3B3B3" d="M30.038,29.421c0,-0.396,0.324,-0.719,0.724997,-0.719l2.648,0c0.396,0,0.724997,0.324,0.724997,0.719l0,9.44899c0,0.396,-0.324,0.719,-0.724997,0.719l-2.648,0c-0.396,0,-0.724997,-0.323,-0.724997,-0.719L30.038,29.421z"/>
      <path  fill="#CCCCCC" d="M12.031,29.421c0,-0.396,0.324,-0.719,0.724003,-0.719l2.649,0c0.396,0,0.724003,0.324,0.724003,0.719l0,1.168L12.03,30.589L12.031,29.421L12.031,29.421z"/>
      <path  fill="#CCCCCC" d="M30.038,29.421c0,-0.396,0.324,-0.719,0.724997,-0.719l2.648,0c0.396,0,0.724997,0.324,0.724997,0.719l0,1.168l-4.098,0L30.038,29.421z"/>
      <rect  width="4.098" x="12.031" y="30.403" fill="#999999" height="4.063"/>
      <rect  width="4.098" x="30.038" y="30.403" fill="#999999" height="4.063"/>
      <rect  width="4.098" x="12.031" y="32.964" fill="#B3B3B3" height="3.875"/>
      <rect  width="4.098" x="30.038" y="32.964" fill="#B3B3B3" height="3.875"/>
      <rect  width="4.098" x="12.031" y="34.746" fill="#CCCCCC" height="1.469"/>
      <rect  width="4.098" x="30.038" y="34.746" fill="#CCCCCC" height="1.469"/>
      <rect  width="4.098" x="12.031" y="30.248" fill="#E6E6E6" height="0.311"/>
      <rect  width="4.098" x="12.034" y="29.701" fill="#F2F2F2" height="0.489"/>
      <path  fill="#CCCCCC" d="M44.973,28.323L44.973,0.721001l0,-0.72l-0.721001,0L1.918,0.001L1.196,0.001l0,0.72l0,27.602l0.288,0l0,10.429L1.92,38.752l8.62697,0l0.72,0l0.047,-0.717l0.336,-5.104l0.336,-5.104c0.026,-0.395,0.372,-0.718,0.770998,-0.718l2.666,0c0.396,0,0.738,0.323,0.768002,0.718l0.336,5.104l0.336,5.104l0,0l0.048,0.717l0.724003,0l10.918,0l0.721001,0l0.049,-0.717l0,0l0.346,-5.104l0.348,-5.105c0.023,-0.395,0.373,-0.717,0.768002,-0.717l2.629,0c0.396,0,0.740002,0.322,0.770998,0.717l0.346,5.105l0.344,5.104l0,0l0.049,0.717l0.718,0l8.62697,0L44.7,38.752l0,-10.43L44.973,28.323L44.973,28.323z"/>
     </g>
     <rect  width="3.475" x="1.196" opacity="0.37" fill="#E6E6E6" height="38.751" enable-background="new    "/>
     <rect  width="3.472" x="41.502" opacity="0.37" fill="#808080" height="38.751" enable-background="new    "/>
     <path  opacity="0.45" fill="#E6E6E6" enable-background="new    " d="M14.078,38.751l-2.047,0c0,0,0,-8.85298,0,-9.32998c0,-0.479,0.433,-0.721001,0.724003,-0.721001s1.323,0,1.323,0L14.078,38.751z"/>
     <path  opacity="0.45" fill="#E6E6E6" enable-background="new    " d="M32.084,38.751l-2.043,0c0,0,0,-8.85298,0,-9.32998c0,-0.479,0.428,-0.721001,0.719,-0.721001s1.324,0,1.324,0L32.084,38.751L32.084,38.751z"/>
     <path  opacity="0.45" fill="#B3B3B3" enable-background="new    " d="M32.088,38.751l2.048,0c0,0,0,-8.85298,0,-9.32998c0,-0.479,-0.435,-0.721001,-0.725998,-0.721001s-1.322,0,-1.322,0L32.088,38.751z"/>
     <path  opacity="0.45" fill="#B3B3B3" enable-background="new    " d="M14.078,38.751l2.051,0c0,0,0,-8.85298,0,-9.32998c0,-0.479,-0.433,-0.721001,-0.724003,-0.721001s-1.327,0,-1.327,0L14.078,38.751z"/>
     <rect  width="4.098" x="12.031" opacity="0.76" y="34.964" fill="#E6E6E6" height="0.813002" enable-background="new    "/>
     <rect  width="4.098" x="30.038" opacity="0.76" y="34.964" fill="#E6E6E6" height="0.813002" enable-background="new    "/>
     <rect  width="4.098" x="30.038" opacity="0.76" y="30.248" fill="#E6E6E6" height="0.311" enable-background="new    "/>
     <rect  width="4.095" x="30.042" opacity="0.76" y="29.806" fill="#F2F2F2" height="0.41" enable-background="new    "/>
     <g >
      <g >
       <rect  width="0.386" x="0.011" y="41.612" fill="#999999" height="1.699"/>
       <rect  width="0.386" x="0.011" y="41.612" fill="#999999" height="1.699"/>
      </g>
      <path  fill="#999999" d="M1.192,48.053c0,0,-0.658,-2.991,-0.783,-4.741L0.011,43.312c0.125,1.75,0.783,4.741,0.783,4.741s0.254,1.497,0.397,1.903C1.192,48.987,1.192,48.053,1.192,48.053z"/>
      <path  fill="#CCCCCC" d="M1.192,46.365c0,0,-0.669,-3.003,-0.794002,-4.753L0,41.612c0.125,1.75,0.794002,4.753,0.794002,4.753s0.254,1.497,0.397,1.903C1.192,47.3,1.192,46.365,1.192,46.365z"/>
     </g>
     <g >
      <g >
       <rect  width="0.386" x="45.771" y="41.612" fill="#999999" height="1.699"/>
       <rect  width="0.386" x="45.771" y="41.612" fill="#999999" height="1.699"/>
      </g>
      <path  fill="#999999" d="M44.976,48.053c0,0,0.657,-2.991,0.781999,-4.741l0.397,0c-0.125,1.75,-0.781999,4.741,-0.781999,4.741s-0.254,1.497,-0.397,1.903C44.976,48.987,44.976,48.053,44.976,48.053z"/>
      <path  fill="#CCCCCC" d="M44.976,46.365c0,0,0.67,-3.003,0.795002,-4.753l0.397,0c-0.125,1.75,-0.795002,4.753,-0.795002,4.753s-0.254,1.497,-0.397,1.903C44.976,47.3,44.976,46.365,44.976,46.365z"/>
     </g>
    </g>
   </g>
  </g>
 </g>
 <g transform="matrix(1, 0, 0, 1, 18.3345, 67.2516)">
  <g >
   <rect  width="2.29896" x="0" y="0" fill="#8D8C8C" height="2.2968" id="connector0pin"/>
   <rect  width="1.18398" x="0.56099" y="0.556952" fill="#8C8663" height="1.18189"/>
   <polygon  fill="#B8AF82" points="0,2.2968,0.56099,1.73785,0.56099,0.501957,0,0"/>
   <polygon  fill="#80795B" points="1.74297,0.558951,0.56899,0.558951,0,0,2.29896,0"/>
   <polygon  fill="#5E5B43" points="1.74297,1.73785,1.74297,0.558951,2.29896,0,2.29896,2.2968"/>
   <polygon  fill="#9A916C" points="0,2.2968,0.56699,1.73785,1.74297,1.73785,2.29896,2.2968"/>
  </g>
 </g>
 <g transform="matrix(1, 0, 0, 1, 18.3345, 2.4516)">
  <g >
   <rect  width="2.29896" x="0" y="0" fill="#8D8C8C" height="2.2968" id="connector7pin"/>
   <rect  width="1.18398" x="0.56099" y="0.556952" fill="#8C8663" height="1.18189"/>
   <polygon  fill="#B8AF82" points="0,2.2968,0.56099,1.73785,0.56099,0.501957,0,0"/>
   <polygon  fill="#80795B" points="1.74297,0.558951,0.56899,0.558951,0,0,2.29896,0"/>
   <polygon  fill="#5E5B43" points="1.74297,1.73785,1.74297,0.558951,2.29896,0,2.29896,2.2968"/>
   <polygon  fill="#9A916C" points="0,2.2968,0.56699,1.73785,1.74297,1.73785,2.29896,2.2968"/>
  </g>
 </g>
 <g transform="matrix(1, 0, 0, 1, 25.5345, 67.2516)">
  <g >
   <rect  width="2.29896" x="0" y="0" fill="#8D8C8C" height="2.2968" id="connector1pin"/>
   <rect  width="1.18398" x="0.56099" y="0.556952" fill="#8C8663" height="1.18189"/>
   <polygon  fill="#B8AF82" points="0,2.2968,0.56099,1.73785,0.56099,0.501957,0,0"/>
   <polygon  fill="#80795B" points="1.74297,0.558951,0.56899,0.558951,0,0,2.29896,0"/>
   <polygon  fill="#5E5B43" points="1.74297,1.73785,1.74297,0.558951,2.29896,0,2.29896,2.2968"/>
   <polygon  fill="#9A916C" points="0,2.2968,0.56699,1.73785,1.74297,1.73785,2.29896,2.2968"/>
  </g>
 </g>
 <g transform="matrix(1, 0, 0, 1, 25.5345, 2.4516)">
  <g >
   <rect  width="2.29896" x="0" y="0" fill="#8D8C8C" height="2.2968" id="connector6pin"/>
   <rect  width="1.18398" x="0.56099" y="0.556952" fill="#8C8663" height="1.18189"/>
   <polygon  fill="#B8AF82" points="0,2.2968,0.56099,1.73785,0.56099,0.501957,0,0"/>
   <polygon  fill="#80795B" points="1.74297,0.558951,0.56899,0.558951,0,0,2.29896,0"/>
   <polygon  fill="#5E5B43" points="1.74297,1.73785,1.74297,0.558951,2.29896,0,2.29896,2.2968"/>
   <polygon  fill="#9A916C" points="0,2.2968,0.56699,1.73785,1.74297,1.73785,2.29896,2.2968"/>
  </g>
 </g>
 <g transform="matrix(1, 0, 0, 1, 32.7345, 67.2516)">
  <g >
   <rect  width="2.29896" x="0" y="0" fill="#8D8C8C" height="2.2968" id="connector2pin"/>
   <rect  width="1.18398" x="0.56099" y="0.556952" fill="#8C8663" height="1.18189"/>
   <polygon  fill="#B8AF82" points="0,2.2968,0.56099,1.73785,0.56099,0.501957,0,0"/>
   <polygon  fill="#80795B" points="1.74297,0.558951,0.56899,0.558951,0,0,2.29896,0"/>
   <polygon  fill="#5E5B43" points="1.74297,1.73785,1.74297,0.558951,2.29896,0,2.29896,2.2968"/>
   <polygon  fill="#9A916C" points="0,2.2968,0.56699,1.73785,1.74297,1.73785,2.29896,2.2968"/>
  </g>
 </g>
 <g transform="matrix(1, 0, 0, 1, 32.7345, 2.4516)">
  <g >
   <rect  width="2.29896" x="0" y="0" fill="#8D8C8C" height="2.2968" id="connector5pin"/>
   <rect  width="1.18398" x="0.56099" y="0.556952" fill="#8C8663" height="1.18189"/>
   <polygon  fill="#B8AF82" points="0,2.2968,0.56099,1.73785,0.56099,0.501957,0,0"/>
   <polygon  fill="#80795B" points="1.74297,0.558951,0.56899,0.558951,0,0,2.29896,0"/>
   <polygon  fill="#5E5B43" points="1.74297,1.73785,1.74297,0.558951,2.29896,0,2.29896,2.2968"/>
   <polygon  fill="#9A916C" points="0,2.2968,0.56699,1.73785,1.74297,1.73785,2.29896,2.2968"/>
  </g>
 </g>
 <g transform="matrix(1, 0, 0, 1, 39.9345, 67.2516)">
  <g >
   <rect  width="2.29896" x="0" y="0" fill="#8D8C8C" height="2.2968" id="connector3pin"/>
   <rect  width="1.18398" x="0.56099" y="0.556952" fill="#8C8663" height="1.18189"/>
   <polygon  fill="#B8AF82" points="0,2.2968,0.56099,1.73785,0.56099,0.501957,0,0"/>
   <polygon  fill="#80795B" points="1.74297,0.558951,0.56899,0.558951,0,0,2.29896,0"/>
   <polygon  fill="#5E5B43" points="1.74297,1.73785,1.74297,0.558951,2.29896,0,2.29896,2.2968"/>
   <polygon  fill="#9A916C" points="0,2.2968,0.56699,1.73785,1.74297,1.73785,2.29896,2.2968"/>
  </g>
 </g>
 <g transform="matrix(1, 0, 0, 1, 39.9345, 2.4516)">
  <g >
   <rect  width="2.29896" x="0" y="0" fill="#8D8C8C" height="2.2968" id="connector4pin"/>
   <rect  width="1.18398" x="0.56099" y="0.556952" fill="#8C8663" height="1.18189"/>
   <polygon  fill="#B8AF82" points="0,2.2968,0.56099,1.73785,0.56099,0.501957,0,0"/>
   <polygon  fill="#80795B" points="1.74297,0.558951,0.56899,0.558951,0,0,2.29896,0"/>
   <polygon  fill="#5E5B43" points="1.74297,1.73785,1.74297,0.558951,2.29896,0,2.29896,2.2968"/>
   <polygon  fill="#9A916C" points="0,2.2968,0.56699,1.73785,1.74297,1.73785,2.29896,2.2968"/>
  </g>
 </g>
</g>
</g></svg>